Coordinates
version=1
nRows=30
nColumns=33
inDegrees=yes

Units are S.I. units (second, meters, Newtons, ...)
Angles are in degrees.

endheader
time	ground_thorax_rot_x	ground_thorax_rot_y	ground_thorax_rot_z	ground_thorax_tx	ground_thorax_ty	ground_thorax_tz	clav_prot_r	clav_elev_r	scapula_abduction_r	scapula_elevation_r	scapula_upward_rot_r	scapula_winging_r	shoulder_elv_r	plane_of_elev_r	axial_rot_r	elbow_flexion_r	pro_sup_r	wrist_flex_r	wrist_dev_r	clav_prot_l	clav_elev_l	scapula_abduction_l	scapula_elevation_l	scapula_upward_rot_l	scapula_winging_l	shoulder_elv_l	plane_of_elev_l	axial_rot_l	elbow_flexion_l	pro_sup_l	wrist_flex_l	wrist_dev_l	
1.9700	2.067033	-0.452244	2.658516	-0.168056	0.984621	0.002266	-6.204730	6.730616	-5.421158	9.035438	11.001921	-3.451437	40.428046	-41.800774	49.626827	72.778485	-10.469652	35.592357	-13.889406	-8.427168	-1.875391	13.152795	-6.723957	-6.211112	-3.078632	43.253817	-39.116583	-7.319247	78.454820	21.171141	-0.499194	-23.095551	
1.9800	1.810003	-0.286344	2.556379	-0.167884	0.984745	0.001883	-6.579425	6.038773	-5.854010	8.425398	10.938564	-3.338799	40.691712	-42.025980	49.833938	72.850063	-9.438992	35.021688	-14.182248	-8.505239	-1.552002	13.094530	-6.700218	-5.424199	-2.857466	42.847877	-39.295788	-7.877842	77.917342	21.027679	-0.188520	-23.597129	
1.9900	1.690208	-0.232918	2.502247	-0.167857	0.984735	0.001581	-6.794886	5.610023	-6.106627	8.057444	10.873766	-3.265334	40.852449	-42.103460	49.908285	72.868650	-8.840242	34.678233	-14.385378	-8.540901	-1.370489	13.066965	-6.708979	-5.035037	-2.745444	42.577113	-39.458509	-8.220908	77.505788	20.959889	-0.073932	-23.874207	
2.0000	1.553396	-0.163797	2.457801	-0.167825	0.984755	0.001258	-7.010622	5.160633	-6.377680	7.687033	10.765957	-3.175834	41.036550	-42.154820	49.955759	72.902770	-8.192178	34.303540	-14.640186	-8.582585	-1.195717	13.031658	-6.692843	-4.601688	-2.623547	42.297865	-39.602141	-8.605498	77.102284	20.895330	-0.046645	-24.190103	
2.0100	1.459427	-0.124887	2.436283	-0.167843	0.984731	0.000955	-7.160864	4.805468	-6.593038	7.418473	10.618024	-3.087857	41.194067	-42.124616	49.914495	72.936230	-7.692014	34.003395	-14.905108	-8.610681	-1.084800	13.001185	-6.670625	-4.297805	-2.538500	42.075983	-39.715596	-8.951020	76.772978	20.863726	-0.193027	-24.435088	
2.0200	1.395465	-0.106656	2.433338	-0.167899	0.984694	0.000672	-7.242767	4.520759	-6.785233	7.260504	10.350660	-2.974774	41.362471	-41.976270	49.735336	72.981860	-7.281419	33.738756	-15.268282	-8.633462	-1.032280	12.976212	-6.630410	-4.082543	-2.480946	41.912228	-39.799791	-9.324971	76.495834	20.868509	-0.687824	-24.621989	
2.0300	1.355710	-0.101460	2.437490	-0.167975	0.984638	0.000399	-7.272856	4.293342	-6.960286	7.189092	9.994852	-2.843326	41.535915	-41.739618	49.439054	73.046173	-6.953041	33.507077	-15.705816	-8.650181	-1.027323	12.951402	-6.574506	-3.936860	-2.444472	41.799617	-39.844554	-9.733895	76.282044	20.898328	-1.462899	-24.753336	
2.0400	1.335480	-0.099141	2.430036	-0.168054	0.984577	0.000136	-7.268154	4.105270	-7.130513	7.180603	9.569150	-2.695773	41.710561	-41.437009	49.024522	73.135358	-6.698852	33.297717	-16.206948	-8.661733	-1.066548	12.921140	-6.497227	-3.839262	-2.423319	41.736317	-39.838533	-10.186870	76.119076	20.944177	-2.479329	-24.832799	
2.0500	1.310938	-0.081727	2.405608	-0.168106	0.984530	-0.000136	-7.275762	3.917043	-7.304963	7.159913	9.174369	-2.555283	41.862860	-41.158293	48.587878	73.249977	-6.478542	33.093281	-16.681189	-8.670313	-1.118418	12.876884	-6.403369	-3.730077	-2.399161	41.689457	-39.778802	-10.657116	76.001035	20.976799	-3.472441	-24.897333	
2.0600	1.278117	-0.045840	2.359154	-0.168118	0.984518	-0.000411	-7.301330	3.723301	-7.496349	7.125298	8.802102	-2.417195	41.985418	-40.905009	48.098072	73.389211	-6.295611	32.873693	-17.134165	-8.676995	-1.181186	12.818777	-6.292227	-3.603452	-2.370694	41.670804	-39.670363	-11.160081	75.903678	20.993399	-4.480795	-24.946434	
2.0700	1.244789	-0.011466	2.309120	-0.168095	0.984519	-0.000687	-7.346015	3.551753	-7.667256	7.069678	8.536917	-2.310892	42.041582	-40.714971	47.627751	73.540252	-6.195009	32.667060	-17.465888	-8.674489	-1.246258	12.750368	-6.186730	-3.495044	-2.345073	41.676055	-39.527385	-11.620688	75.843494	20.984281	-5.319317	-24.968878	
2.0800	1.202713	0.019101	2.249123	-0.168028	0.984517	-0.000946	-7.402740	3.400565	-7.829427	7.008350	8.335152	-2.223194	42.040314	-40.558227	47.131890	73.724682	-6.152971	32.413762	-17.707402	-8.666508	-1.298494	12.676216	-6.094033	-3.387783	-2.317127	41.717112	-39.356154	-12.093533	75.793627	20.934026	-6.161780	-24.968115	
2.0900	1.157809	0.024225	2.200338	-0.167930	0.984515	-0.001189	-7.458870	3.285583	-7.960855	6.952068	8.206704	-2.161330	41.993242	-40.421926	46.660950	73.937743	-6.155170	32.123676	-17.839818	-8.653499	-1.330436	12.604546	-6.026359	-3.294556	-2.289792	41.776688	-39.182220	-12.532596	75.754172	20.844312	-6.942850	-24.942522	
2.1000	1.107793	0.012870	2.141628	-0.167786	0.984517	-0.001407	-7.509647	3.188882	-8.091456	6.913658	8.075302	-2.099909	41.941414	-40.256316	46.147966	74.202707	-6.151879	31.760154	-17.946916	-8.642225	-1.343940	12.534525	-5.968807	-3.183789	-2.256353	41.854558	-39.008342	-12.994054	75.702946	20.720961	-7.813263	-24.898151	
2.1100	1.069563	-0.020991	2.076401	-0.167606	0.984532	-0.001611	-7.556650	3.120988	-8.201749	6.884873	7.987060	-2.054838	41.884285	-40.070728	45.634282	74.503749	-6.158934	31.353608	-17.973944	-8.627979	-1.351334	12.461494	-5.917747	-3.074645	-2.222090	41.928259	-38.840702	-13.406313	75.663657	20.568524	-8.547009	-24.817047	
2.1200	1.043156	-0.067083	1.992397	-0.167391	0.984556	-0.001799	-7.603171	3.073875	-8.295944	6.859262	7.939669	-2.024148	41.818697	-39.862286	45.095714	74.843031	-6.182602	30.888809	-17.919622	-8.608772	-1.356455	12.378803	-5.867774	-2.962553	-2.185273	42.001787	-38.667839	-13.783384	75.641350	20.384875	-9.135861	-24.689235	
2.1300	1.029783	-0.123879	1.906437	-0.167158	0.984592	-0.001975	-7.646079	3.058178	-8.364997	6.841561	7.946222	-2.013695	41.725661	-39.632898	44.527568	75.200814	-6.241538	30.311306	-17.715728	-8.580281	-1.357187	12.281940	-5.823815	-2.854448	-2.146406	42.069277	-38.496139	-14.100082	75.661276	20.151517	-9.425306	-24.466288	
2.1400	1.022037	-0.182601	1.813204	-0.166903	0.984641	-0.002139	-7.684250	3.058855	-8.411914	6.825527	7.987348	-2.016725	41.606017	-39.377165	43.910934	75.573978	-6.332909	29.616764	-17.392966	-8.542214	-1.353084	12.168006	-5.783715	-2.744035	-2.103484	42.140038	-38.315553	-14.382322	75.721442	19.880555	-9.480448	-24.149614	
2.1500	1.018559	-0.244221	1.725783	-0.166631	0.984709	-0.002302	-7.712987	3.070923	-8.430356	6.809683	8.055376	-2.032050	41.463611	-39.091744	43.253178	75.943977	-6.452921	28.801144	-16.961199	-8.494891	-1.341359	12.040404	-5.751940	-2.635904	-2.057861	42.209972	-38.126577	-14.630651	75.823344	19.578951	-9.324573	-23.738784	
2.1600	1.009109	-0.309835	1.639554	-0.166346	0.984775	-0.002460	-7.720087	3.086260	-8.413531	6.799415	8.117876	-2.051625	41.300888	-38.758179	42.531646	76.319000	-6.592499	27.821702	-16.451723	-8.440913	-1.312136	11.903978	-5.734817	-2.523126	-2.007029	42.284319	-37.914052	-14.870815	75.959435	19.256083	-9.078214	-23.219952	
2.1700	0.998260	-0.377382	1.546396	-0.166037	0.984838	-0.002620	-7.707757	3.096653	-8.360569	6.786033	8.177702	-2.075757	41.124401	-38.375777	41.747295	76.692056	-6.748453	26.690979	-15.873635	-8.383102	-1.276506	11.762285	-5.723735	-2.410166	-1.954243	42.357163	-37.667519	-15.088844	76.127716	18.920267	-8.747446	-22.597117	
2.1800	0.987070	-0.444364	1.438580	-0.165709	0.984894	-0.002782	-7.673385	3.095883	-8.265285	6.764524	8.233091	-2.104383	40.937617	-37.944080	40.901457	77.065907	-6.919137	25.417309	-15.241533	-8.321186	-1.244521	11.613998	-5.711487	-2.302494	-1.901751	42.428826	-37.374284	-15.264806	76.322773	18.598854	-8.317957	-21.859896	
2.1900	0.980868	-0.509108	1.319673	-0.165343	0.984964	-0.002953	-7.628282	3.072008	-8.136307	6.718733	8.297162	-2.138679	40.755124	-37.471797	40.030321	77.420568	-7.091302	24.097874	-14.603024	-8.256838	-1.230274	11.461612	-5.688306	-2.208609	-1.854209	42.497186	-37.039820	-15.390999	76.530633	18.314552	-7.845335	-21.067529	
2.2000	0.972405	-0.569240	1.200454	-0.164958	0.985022	-0.003124	-7.565628	3.041633	-7.974403	6.668646	8.357840	-2.176689	40.546646	-36.947129	39.088799	77.752893	-7.280429	22.626949	-13.909103	-8.185612	-1.223512	11.301766	-5.665548	-2.132449	-1.810031	42.570107	-36.656994	-15.472957	76.760546	18.057287	-7.301309	-20.148355	
2.2100	0.965267	-0.626434	1.079058	-0.164541	0.985084	-0.003300	-7.498419	2.993379	-7.788314	6.596585	8.433551	-2.220790	40.320985	-36.374072	38.112282	78.041319	-7.469420	21.102346	-13.192733	-8.111882	-1.239171	11.140705	-5.631760	-2.080296	-1.774161	42.644496	-36.230055	-15.499513	76.999839	17.833347	-6.753991	-19.164403	
2.2200	0.956164	-0.675284	0.971211	-0.164121	0.985122	-0.003474	-7.415788	2.952522	-7.573132	6.529414	8.514902	-2.271625	40.041882	-35.745813	37.043850	78.278051	-7.667570	19.403957	-12.384694	-8.026756	-1.264990	10.970010	-5.602455	-2.061599	-1.745110	42.727926	-35.748563	-15.477964	77.258148	17.637844	-6.161110	-18.024044	
2.2300	0.949390	-0.718961	0.870697	-0.163679	0.985176	-0.003653	-7.333444	2.892446	-7.335315	6.434378	8.623307	-2.331154	39.731179	-35.074861	35.940018	78.432458	-7.847246	17.701589	-11.550077	-7.936986	-1.321042	10.796989	-5.559548	-2.078546	-1.727895	42.811522	-35.218021	-15.383629	77.511428	17.496310	-5.579084	-16.826555	
2.2400	0.942286	-0.749118	0.789111	-0.163259	0.985184	-0.003823	-7.229046	2.855111	-7.061154	6.357526	8.739428	-2.400677	39.339240	-34.349817	34.697940	78.511385	-8.020598	15.763656	-10.549966	-7.830424	-1.384137	10.609107	-5.527542	-2.137069	-1.717702	42.899669	-34.610987	-15.226871	77.777221	17.378769	-4.909192	-15.412981	
2.2500	0.937748	-0.768916	0.711243	-0.162848	0.985182	-0.003990	-7.112895	2.807227	-6.751886	6.265071	8.871942	-2.479300	38.910528	-33.579066	33.386982	78.495863	-8.158133	13.740996	-9.441376	-7.714774	-1.473529	10.412936	-5.486448	-2.233311	-1.717748	42.982961	-33.922467	-14.981705	78.025991	17.304147	-4.180837	-13.882651	
2.2600	0.935187	-0.776747	0.653726	-0.162484	0.985131	-0.004144	-6.966766	2.770234	-6.398311	6.187322	8.993646	-2.563979	38.458602	-32.749767	32.007560	78.391468	-8.283695	11.529058	-8.175320	-7.580471	-1.568211	10.198774	-5.457362	-2.370367	-1.723539	43.059397	-33.134796	-14.654460	78.251635	17.258080	-3.325678	-12.167676	
